# xmcd
#
# Track frame offsets:
#	150
#	11775
#	22975
#	35588
#	50125
#	60988
#	74850
#	87425
#	102025
#	116138
#	129175
#	143200
#	157013
#	171050
#	185088
#	198125
#	210713
#	226250
#
# Disc length: 3194 seconds
#
# Revision: 1
# Processed by: cddbd v1.4b42PL1 Copyright (c) Steve Scherf et al.
# Submitted via: audiograbber 1.80
#
DISCID=010c7812
DTITLE=Various Artist - Feelin' The Blues Diggin' The Rhythm 5
DYEAR=1900
DGENRE=
TTITLE0=Muddy Waters - Crawling Kingsnake
TTITLE1=Howlin' Wolf - The Red Rooster
TTITLE2=Little Walter - Juke
TTITLE3=Jimmy Witherspoon - Crying
TTITLE4=Jimmy McCracklin - Everybody Rock
TTITLE5=Albert King - Bad Luck Blues
TTITLE6=John Brim - Ice Cream Man
TTITLE7=Buddy Guy - Broken Hearted Blues
TTITLE8=Howlin' Wolf - Three Hundred Pounds Of Joy
TTITLE9=Jimmie Rogers - Rock This House
TTITLE10=Lowell Fulson - Loving You
TTITLE11=Memphis Slim - Slim's Blues
TTITLE12=Elmore James - Dust My Broom
TTITLE13=Chuck Berry - Wee Wee Hours
TTITLE14=Sonny Boy Williamson - Keep Your Hand Out Of My Pocket
TTITLE15=Little Walter - Last Night
TTITLE16=Howlin' Wolf - Goin' Down Slow
TTITLE17=Muddy Waters - I Feel So Good
EXTD=
EXTT0=
EXTT1=
EXTT2=
EXTT3=
EXTT4=
EXTT5=
EXTT6=
EXTT7=
EXTT8=
EXTT9=
EXTT10=
EXTT11=
EXTT12=
EXTT13=
EXTT14=
EXTT15=
EXTT16=
EXTT17=
PLAYORDER=
